<?xml version="1.0" encoding="utf-8"?>
<!-- Generator: Adobe Illustrator 23.0.3, SVG Export Plug-In . SVG Version: 6.00 Build 0)  -->
<svg version="1.1" id="Layer_1" xmlns="http://www.w3.org/2000/svg" xmlns:xlink="http://www.w3.org/1999/xlink" x="0px" y="0px"
	 viewBox="0 0 343.8 138.1" style="enable-background:new 0 0 343.8 138.1;" xml:space="preserve">
<style type="text/css">
	.st0{fill:#FEFEFE;}
	.st1{fill:#1351F2;}
	.st2{fill:#53D2FE;}
	.st3{fill:#0524E6;}
	.st4{fill:#0A27AF;}
	.st5{enable-background:new    ;}
</style>
<g>
	<g>
		<g>
			<g>
				<path class="st0" d="M0,0c46.8,0,93.5,0,140.3,0c0,45.5,0,91,0,136.5c-46.8,0-93.5,0-140.3,0C0,91,0,45.5,0,0z M55.6,99.8
					c9.2,4.7,18.3,9.3,27.5,13.9c0.7,0.3,1.4,0.6,2.1,0.7c2.4,0.4,4.8,1,7.1-0.3c4.8,0.4,8.4-1.5,11.1-5.4c0.4-0.6,1-1.1,1.6-1.6
					c6.4-6.5,12.8-12.9,19.2-19.4c1.3-1.3,2.6-2.7,3.5-4.3c2.9-4.8,0.9-10.6-4.5-12.3c-3.3-1.1-6.7-1.8-10-2.7c-3.5-1-7-2-10.5-3.1
					c-0.2-1.5-0.5-3-0.7-4.5c-0.3-6.6-0.6-13.2-1-19.8c-0.3-4.3-0.5-8.7-1.2-13C98,18,87.2,12.3,77.9,16.5c-1.6,0.7-3.1,1.6-4.6,2.6
					c-12.6,8.4-25.3,16.8-37.8,25.3c-6,4-12,8-17.8,12.3c-7.3,5.4-7.3,19.1,1.4,24.5c2.5,1.6,5.2,2.8,7.9,4.2
					c6.4,3.3,12.9,6.6,19.4,9.9C49.5,96.8,52.5,98.3,55.6,99.8z"/>
				<path class="st1" d="M27,85.4c-2.6-1.4-5.3-2.7-7.9-4.2c-8.7-5.4-8.7-19.1-1.4-24.5c5.8-4.3,11.8-8.3,17.8-12.3
					C48.2,35.9,60.8,27.4,73.4,19c1.4-1,3-1.9,4.6-2.6C87.2,12.3,98,18,99.7,28c0.7,4.3,0.9,8.7,1.2,13c0.4,6.6,0.7,13.2,1,19.8
					c-1.5-2.2-2.9-4.5-4.5-6.7c-2.4-3.2-5.9-4.7-9.7-4.3C84.4,50,81,51.4,78,53.5c-6,4.3-12.3,8.2-18.3,12.5
					C49.3,73.3,38.7,80.2,27,85.4z"/>
				<path class="st2" d="M102.7,65.2c3.5,1,7,2.1,10.5,3.1c3.3,0.9,6.7,1.6,10,2.7c5.4,1.8,7.4,7.5,4.5,12.3c-1,1.6-2.2,3-3.5,4.3
					c-6.4,6.5-12.8,12.9-19.2,19.4c-0.5,0.5-1.2,1-1.6,1.6c-2.7,3.9-6.3,5.8-11.1,5.4c-4.2-2.5-6-6.4-7-11.1
					c-1.1-5.1-2.9-10.1-4.4-15.2c-0.1-0.5-0.1-1-0.3-1.4c-1.3-4.6-2.7-9.2-3.8-13.9c-1.6-6.5,3.8-11.9,10.3-10.5
					c2.5,0.6,5,1.2,7.6,1.8C97.3,64.3,100,64.7,102.7,65.2z"/>
				<path class="st3" d="M102.7,65.2c-2.7-0.5-5.3-0.9-8-1.5c-2.5-0.5-5-1.2-7.6-1.8c-6.5-1.5-11.9,3.9-10.3,10.5
					c1.2,4.7,2.6,9.3,3.8,13.9c0.1,0.5,0.2,1,0.3,1.4c-3.2,2.2-6.5,4.2-9.7,6.5c-4.7,3.3-9.5,6.2-15.6,5.5c-3.1-1.5-6.2-2.9-9.3-4.5
					c-6.5-3.3-12.9-6.6-19.4-9.9c11.6-5.2,22.2-12,32.6-19.4c6-4.3,12.3-8.2,18.3-12.5c3-2.2,6.4-3.5,9.9-3.8
					c3.7-0.4,7.3,1.2,9.7,4.3c1.6,2.2,3,4.5,4.5,6.7C102.2,62.2,102.4,63.7,102.7,65.2z"/>
				<path class="st4" d="M55.6,99.8c6.1,0.7,10.9-2.2,15.6-5.5c3.2-2.3,6.5-4.3,9.7-6.5c1.5,5.1,3.3,10.1,4.4,15.2
					c1,4.7,2.8,8.6,7,11.1c-2.3,1.4-4.7,0.7-7.1,0.3c-0.7-0.1-1.5-0.3-2.1-0.7C73.9,109.1,64.8,104.4,55.6,99.8z"/>
			</g>
		</g>
		<g>
			<g>
				<path d="M179.1,49.2l-1.6,4.7h-4.4l6.9-20.5h5.6l7.3,20.5h-4.6l-1.7-4.7H179.1z M185.6,45.6c-1.4-4.3-2.4-7.1-2.9-8.9h0
					c-0.5,2-1.5,5.2-2.7,8.9H185.6z"/>
				<path d="M195.2,42.4c0-1.3,0-2.7,0-3.9h4.1c0.1,0.4,0.1,1.5,0.2,2c0.5-1,1.8-2.3,4.5-2.3c3.1,0,5.1,2.1,5.1,6v9.8h-4.3v-9.3
					c0-1.7-0.6-3-2.4-3c-1.8,0-2.8,1-2.8,3.7v8.6h-4.3L195.2,42.4L195.2,42.4z"/>
				<path d="M226.9,32.3v17.5c0,1.4,0,2.8,0,4.2h-4.1c-0.1-0.5-0.2-1.3-0.2-1.6c-0.7,1.2-2.1,2-4.4,2c-3.9,0-6.4-3.1-6.4-7.9
					c0-4.7,2.6-8.2,7-8.2c2.2,0,3.4,0.8,3.7,1.5v-7.4L226.9,32.3L226.9,32.3z M216.2,46.3c0,3,1.2,4.6,3.3,4.6
					c2.9,0,3.3-2.4,3.3-4.7c0-2.6-0.4-4.6-3.1-4.6C217.4,41.6,216.2,43.3,216.2,46.3z"/>
				<path d="M230.6,42.7c0-1.5,0-2.9,0-4.2h4.2c0.1,0.3,0.1,1.9,0.1,2.7c0.7-1.8,2.3-3,4.9-3v4.1c-3.1-0.1-4.9,0.8-4.9,5v6.7h-4.3
					L230.6,42.7L230.6,42.7z"/>
				<path d="M242.3,32.3h4.3V36h-4.3V32.3z M242.3,38.5h4.3v15.4h-4.3V38.5z"/>
				<path d="M253.8,47.2c0,1.9,1,3.8,3.1,3.8c1.8,0,2.3-0.7,2.7-1.6h4.3c-0.5,1.9-2.2,5-7,5c-5.1,0-7.3-3.8-7.3-7.8
					c0-4.8,2.5-8.3,7.4-8.3c5.3,0,7.1,3.8,7.1,7.7c0,0.5,0,0.9-0.1,1.3L253.8,47.2L253.8,47.2z M259.7,44.5c0-1.8-0.7-3.3-2.8-3.3
					c-2,0-2.9,1.4-3,3.3H259.7z"/>
				<path d="M266.9,53.9V32.3h4.3v21.7L266.9,53.9L266.9,53.9z"/>
				<path d="M275,53.9V32.3h4.3v21.7L275,53.9L275,53.9z"/>
				<path d="M286.4,47.2c0,1.9,1,3.8,3.1,3.8c1.8,0,2.3-0.7,2.7-1.6h4.3c-0.5,1.9-2.2,5-7,5c-5.1,0-7.3-3.8-7.3-7.8
					c0-4.8,2.5-8.3,7.4-8.3c5.3,0,7.1,3.8,7.1,7.7c0,0.5,0,0.9-0.1,1.3L286.4,47.2L286.4,47.2z M292.4,44.5c0-1.8-0.7-3.3-2.8-3.3
					c-2,0-2.9,1.4-3,3.3H292.4z"/>
			</g>
		</g>
		<g class="st5">
			<path d="M154.1,62.7c0.7,0.4,1.1,0.8,1.4,1.3c0,0.1,0.1,0.2,0.1,0.3c0,0.1,0,0.2-0.1,0.2c0,0.1-0.1,0.1-0.2,0.2c0,0-0.1,0-0.2,0
				c-0.2,0-0.3-0.1-0.4-0.2c-0.6-0.9-1.5-1.4-2.7-1.4c-0.9,0-1.6,0.2-2.1,0.6c-0.5,0.4-0.7,1-0.7,1.7c0,0.6,0.2,1.1,0.7,1.5
				c0.5,0.4,1.2,0.7,2.3,0.9c1.3,0.2,2.3,0.6,2.9,1.2c0.6,0.6,0.9,1.4,0.9,2.4c0,0.7-0.2,1.4-0.5,1.9c-0.3,0.5-0.8,1-1.4,1.2
				c-0.6,0.3-1.3,0.4-2.1,0.4c-1,0-1.9-0.2-2.6-0.6c-0.7-0.4-1.3-1-1.6-1.7c0-0.1,0-0.1,0-0.2c0-0.1,0-0.2,0.1-0.3
				c0.1-0.1,0.2-0.1,0.4-0.1c0.2,0,0.4,0.1,0.5,0.3c0.3,0.5,0.7,0.9,1.3,1.2c0.6,0.3,1.3,0.4,2.1,0.4c0.9,0,1.6-0.2,2.2-0.7
				c0.5-0.5,0.8-1.1,0.8-2c0-0.7-0.3-1.3-0.8-1.8c-0.5-0.5-1.3-0.8-2.3-0.9c-1.2-0.2-2.1-0.6-2.8-1.2c-0.7-0.6-1-1.3-1-2.2
				c0-0.6,0.2-1.2,0.5-1.6c0.3-0.5,0.8-0.8,1.3-1.1c0.6-0.3,1.2-0.4,2-0.4C152.7,62.1,153.4,62.3,154.1,62.7z"/>
			<path d="M172.4,62.4c0.1,0.1,0.1,0.2,0.1,0.3c0,0.1,0,0.2-0.1,0.3s-0.2,0.1-0.3,0.1h-4v11.2c0,0.1,0,0.3-0.1,0.3
				c-0.1,0.1-0.2,0.1-0.3,0.1c-0.1,0-0.3,0-0.3-0.1c-0.1-0.1-0.1-0.2-0.1-0.3V63.1h-4c-0.1,0-0.2,0-0.3-0.1s-0.1-0.2-0.1-0.3
				c0-0.1,0-0.2,0.1-0.3s0.2-0.1,0.3-0.1h9.1C172.3,62.3,172.4,62.3,172.4,62.4z"/>
			<path d="M188.9,73.9c0.1,0.1,0.1,0.2,0.1,0.3c0,0.1,0,0.3-0.1,0.3s-0.2,0.1-0.3,0.1h-7.7c-0.1,0-0.3,0-0.3-0.1s-0.1-0.2-0.1-0.3
				V62.7c0-0.1,0-0.3,0.1-0.3c0.1-0.1,0.2-0.1,0.3-0.1h7.7c0.1,0,0.2,0,0.3,0.1c0.1,0.1,0.1,0.2,0.1,0.3c0,0.1,0,0.2-0.1,0.3
				c-0.1,0.1-0.2,0.1-0.3,0.1h-7.2V68h5.3c0.1,0,0.3,0,0.3,0.1s0.1,0.2,0.1,0.3s0,0.3-0.1,0.4c-0.1,0.1-0.2,0.1-0.3,0.1h-5.3v4.8
				h7.2C188.7,73.8,188.8,73.8,188.9,73.9z"/>
			<path d="M197.5,62.4c0.1-0.1,0.2-0.1,0.3-0.1c0.1,0,0.3,0,0.3,0.1c0.1,0.1,0.1,0.2,0.1,0.3v11.5c0,0.1,0,0.3-0.1,0.3
				s-0.2,0.1-0.3,0.1c-0.1,0-0.3,0-0.3-0.1s-0.1-0.2-0.1-0.3V62.7C197.4,62.6,197.4,62.5,197.5,62.4z"/>
			<path d="M216.7,62.4c0.1-0.1,0.2-0.1,0.3-0.1c0.1,0,0.2,0,0.3,0.1c0.1,0.1,0.1,0.2,0.1,0.3v11.5c0,0.1,0,0.3-0.1,0.3
				c-0.1,0.1-0.2,0.1-0.3,0.1c-0.1,0-0.3,0-0.4-0.1L208.5,64v10.3c0,0.1,0,0.3-0.1,0.3s-0.2,0.1-0.3,0.1s-0.3,0-0.3-0.1
				s-0.1-0.2-0.1-0.3V62.7c0-0.1,0-0.3,0.1-0.3c0.1-0.1,0.2-0.1,0.3-0.1c0.1,0,0.3,0.1,0.4,0.2l8.1,10.6V62.7
				C216.5,62.6,216.6,62.5,216.7,62.4z"/>
			<path d="M235.9,62.4c0.1-0.1,0.2-0.1,0.3-0.1c0.1,0,0.2,0,0.3,0.1c0.1,0.1,0.1,0.2,0.1,0.3v11.5c0,0.1,0,0.3-0.1,0.3
				c-0.1,0.1-0.2,0.1-0.3,0.1c-0.1,0-0.3,0-0.3-0.1s-0.1-0.2-0.1-0.3v-5.4h-8.1v5.4c0,0.1,0,0.3-0.1,0.3s-0.2,0.1-0.3,0.1
				c-0.1,0-0.3,0-0.3-0.1s-0.1-0.2-0.1-0.3V62.7c0-0.1,0-0.3,0.1-0.3c0.1-0.1,0.2-0.1,0.3-0.1c0.1,0,0.3,0,0.3,0.1
				c0.1,0.1,0.1,0.2,0.1,0.3V68h8.1v-5.3C235.7,62.6,235.8,62.5,235.9,62.4z"/>
			<path d="M254.4,73.9c0.1,0.1,0.1,0.2,0.1,0.3c0,0.1,0,0.3-0.1,0.3s-0.2,0.1-0.3,0.1h-7.7c-0.1,0-0.3,0-0.3-0.1s-0.1-0.2-0.1-0.3
				V62.7c0-0.1,0-0.3,0.1-0.3c0.1-0.1,0.2-0.1,0.3-0.1h7.7c0.1,0,0.2,0,0.3,0.1c0.1,0.1,0.1,0.2,0.1,0.3c0,0.1,0,0.2-0.1,0.3
				c-0.1,0.1-0.2,0.1-0.3,0.1h-7.2V68h5.3c0.1,0,0.3,0,0.3,0.1s0.1,0.2,0.1,0.3s0,0.3-0.1,0.4c-0.1,0.1-0.2,0.1-0.3,0.1h-5.3v4.8
				h7.2C254.2,73.8,254.3,73.8,254.4,73.9z"/>
			<path d="M263,62.4c0.1-0.1,0.2-0.1,0.3-0.1c0.1,0,0.3,0,0.4,0.1c0.1,0.1,0.1,0.2,0.1,0.4v7.9c0,0.7,0.2,1.2,0.5,1.7
				s0.8,0.9,1.4,1.2c0.6,0.3,1.2,0.4,2,0.4c0.7,0,1.4-0.1,2-0.4s1-0.7,1.4-1.2c0.3-0.5,0.5-1.1,0.5-1.7v-7.9c0-0.1,0-0.3,0.1-0.4
				c0.1-0.1,0.2-0.1,0.3-0.1c0.1,0,0.3,0,0.4,0.1c0.1,0.1,0.1,0.2,0.1,0.4v7.9c0,0.8-0.2,1.6-0.6,2.2c-0.4,0.7-1,1.2-1.7,1.5
				s-1.6,0.6-2.5,0.6c-0.9,0-1.8-0.2-2.5-0.6c-0.7-0.4-1.3-0.9-1.7-1.5s-0.6-1.4-0.6-2.2v-7.9C262.9,62.6,262.9,62.5,263,62.4z"/>
			<path d="M287.4,62.7c0.7,0.4,1.1,0.8,1.4,1.3c0,0.1,0.1,0.2,0.1,0.3c0,0.1,0,0.2-0.1,0.2c0,0.1-0.1,0.1-0.2,0.2c0,0-0.1,0-0.2,0
				c-0.2,0-0.3-0.1-0.4-0.2c-0.6-0.9-1.5-1.4-2.7-1.4c-0.9,0-1.6,0.2-2.1,0.6c-0.5,0.4-0.7,1-0.7,1.7c0,0.6,0.2,1.1,0.7,1.5
				c0.5,0.4,1.2,0.7,2.3,0.9c1.3,0.2,2.3,0.6,2.9,1.2c0.6,0.6,0.9,1.4,0.9,2.4c0,0.7-0.2,1.4-0.5,1.9c-0.3,0.5-0.8,1-1.4,1.2
				c-0.6,0.3-1.3,0.4-2.1,0.4c-1,0-1.9-0.2-2.6-0.6c-0.7-0.4-1.3-1-1.6-1.7c0-0.1,0-0.1,0-0.2c0-0.1,0-0.2,0.1-0.3
				c0.1-0.1,0.2-0.1,0.4-0.1c0.2,0,0.4,0.1,0.5,0.3c0.3,0.5,0.7,0.9,1.3,1.2c0.6,0.3,1.3,0.4,2.1,0.4c0.9,0,1.6-0.2,2.2-0.7
				c0.5-0.5,0.8-1.1,0.8-2c0-0.7-0.3-1.3-0.8-1.8c-0.5-0.5-1.3-0.8-2.3-0.9c-1.2-0.2-2.1-0.6-2.8-1.2c-0.7-0.6-1-1.3-1-2.2
				c0-0.6,0.2-1.2,0.5-1.6s0.8-0.8,1.3-1.1c0.6-0.3,1.2-0.4,2-0.4C286,62.1,286.8,62.3,287.4,62.7z"/>
			<path d="M306.5,73.9c0.1,0.1,0.1,0.2,0.1,0.3c0,0.1,0,0.3-0.1,0.3s-0.2,0.1-0.3,0.1h-7.7c-0.1,0-0.3,0-0.3-0.1s-0.1-0.2-0.1-0.3
				V62.7c0-0.1,0-0.3,0.1-0.3c0.1-0.1,0.2-0.1,0.3-0.1h7.7c0.1,0,0.2,0,0.3,0.1c0.1,0.1,0.1,0.2,0.1,0.3c0,0.1,0,0.2-0.1,0.3
				c-0.1,0.1-0.2,0.1-0.3,0.1h-7.2V68h5.3c0.1,0,0.3,0,0.3,0.1s0.1,0.2,0.1,0.3s0,0.3-0.1,0.4c-0.1,0.1-0.2,0.1-0.3,0.1h-5.3v4.8
				h7.2C306.3,73.8,306.4,73.8,306.5,73.9z"/>
			<path d="M322.7,74.4c0,0.1,0,0.2-0.1,0.3c-0.1,0.1-0.2,0.1-0.4,0.1c-0.1,0-0.2,0-0.3-0.1c-0.1,0-0.1-0.1-0.2-0.2l-2.9-4.7h-0.3
				h-2.6v4.5c0,0.1,0,0.3-0.1,0.3s-0.2,0.1-0.4,0.1c-0.1,0-0.3,0-0.3-0.1s-0.1-0.2-0.1-0.3V62.7c0-0.1,0-0.3,0.1-0.4
				c0.1-0.1,0.2-0.1,0.3-0.1h3.1c0.8,0,1.5,0.2,2.1,0.5c0.6,0.3,1.1,0.8,1.4,1.3c0.3,0.6,0.5,1.2,0.5,2c0,0.9-0.2,1.6-0.7,2.3
				c-0.5,0.6-1.1,1.1-2,1.3l2.8,4.4C322.6,74.2,322.7,74.3,322.7,74.4z M318.5,68.8c0.6,0,1.1-0.1,1.6-0.4c0.5-0.2,0.8-0.6,1.1-1
				c0.3-0.4,0.4-0.9,0.4-1.4c0-0.5-0.1-1-0.4-1.5c-0.3-0.4-0.6-0.8-1.1-1c-0.5-0.2-1-0.4-1.6-0.4h-2.6v5.6H318.5z"/>
		</g>
	</g>
	<g class="st5">
		<path d="M181.1,100.8c0,0.1,0,0.2-0.1,0.3c-0.1,0.1-0.2,0.1-0.3,0.1c-0.2,0-0.4-0.1-0.4-0.3l-0.8-1.9h-4.6l-0.8,1.9
			c-0.1,0.2-0.2,0.3-0.4,0.3c-0.1,0-0.2,0-0.3-0.1s-0.1-0.2-0.1-0.3c0-0.1,0-0.1,0-0.2l3.5-8.4c0.1-0.2,0.2-0.3,0.5-0.3
			s0.4,0.1,0.4,0.3l3.5,8.4C181,100.7,181.1,100.8,181.1,100.8z M179,98.3l-2-4.8l-2,4.8H179z"/>
		<path d="M186,94.9c0.4,0.2,0.7,0.4,0.9,0.8c0.1,0.1,0.1,0.2,0.1,0.3c0,0.1-0.1,0.2-0.2,0.3c-0.1,0-0.1,0.1-0.2,0.1
			c-0.2,0-0.3-0.1-0.4-0.2c-0.4-0.4-0.9-0.7-1.6-0.7c-0.4,0-0.8,0.1-1.1,0.3c-0.3,0.2-0.4,0.4-0.4,0.7c0,0.3,0.1,0.5,0.4,0.7
			c0.2,0.2,0.7,0.3,1.3,0.4c0.9,0.1,1.5,0.4,1.8,0.7s0.6,0.7,0.6,1.2c0,0.4-0.1,0.7-0.3,1c-0.2,0.3-0.5,0.5-0.9,0.7
			c-0.4,0.2-0.8,0.2-1.3,0.2s-1-0.1-1.4-0.3s-0.8-0.4-1.1-0.7c-0.1-0.1-0.1-0.2-0.1-0.3c0-0.1,0.1-0.3,0.2-0.4
			c0.1-0.1,0.2-0.1,0.3-0.1c0.1,0,0.3,0.1,0.3,0.2c0.2,0.2,0.4,0.4,0.8,0.5c0.3,0.1,0.7,0.2,1.1,0.2c0.6,0,1-0.1,1.3-0.3
			c0.3-0.2,0.4-0.4,0.4-0.8c0-0.3-0.1-0.5-0.4-0.7s-0.7-0.3-1.3-0.4c-0.8-0.1-1.4-0.4-1.8-0.7c-0.4-0.3-0.6-0.7-0.6-1.1
			c0-0.6,0.2-1,0.7-1.4c0.5-0.3,1-0.5,1.7-0.5C185.1,94.7,185.6,94.8,186,94.9z"/>
		<path d="M193.1,95.1c0.5,0.3,0.8,0.7,1.1,1.1c0.3,0.5,0.4,1,0.4,1.7c0,0.1,0,0.2-0.1,0.3s-0.2,0.1-0.3,0.1h-4.8
			c0.1,0.7,0.3,1.2,0.8,1.6c0.4,0.4,1,0.6,1.7,0.6c0.3,0,0.6-0.1,0.9-0.2s0.5-0.2,0.7-0.4c0.1-0.1,0.2-0.1,0.3-0.1
			c0.1,0,0.2,0,0.3,0.1c0.1,0.1,0.2,0.2,0.2,0.3c0,0.1,0,0.2-0.1,0.3c-0.3,0.2-0.6,0.4-1,0.6c-0.4,0.1-0.8,0.2-1.2,0.2
			c-0.6,0-1.2-0.1-1.7-0.4c-0.5-0.3-0.9-0.7-1.2-1.2c-0.3-0.5-0.4-1.1-0.4-1.7c0-0.6,0.1-1.2,0.4-1.7c0.3-0.5,0.6-0.9,1.1-1.2
			c0.5-0.3,1-0.4,1.6-0.4C192.2,94.7,192.7,94.8,193.1,95.1z M190.1,96.1c-0.4,0.4-0.6,0.9-0.7,1.5h4.4c-0.1-0.6-0.3-1.1-0.7-1.5
			c-0.4-0.4-0.9-0.6-1.5-0.6C191,95.5,190.5,95.7,190.1,96.1z"/>
		<path d="M199.8,94.9c0.4,0.2,0.7,0.4,0.9,0.8c0.1,0.1,0.1,0.2,0.1,0.3c0,0.1-0.1,0.2-0.2,0.3c-0.1,0-0.1,0.1-0.2,0.1
			c-0.2,0-0.3-0.1-0.4-0.2c-0.4-0.4-0.9-0.7-1.6-0.7c-0.4,0-0.8,0.1-1.1,0.3c-0.3,0.2-0.4,0.4-0.4,0.7c0,0.3,0.1,0.5,0.4,0.7
			s0.7,0.3,1.3,0.4c0.9,0.1,1.5,0.4,1.8,0.7s0.6,0.7,0.6,1.2c0,0.4-0.1,0.7-0.3,1c-0.2,0.3-0.5,0.5-0.9,0.7s-0.8,0.2-1.3,0.2
			s-1-0.1-1.4-0.3s-0.8-0.4-1.1-0.7c-0.1-0.1-0.1-0.2-0.1-0.3c0-0.1,0.1-0.3,0.2-0.4c0.1-0.1,0.2-0.1,0.3-0.1c0.1,0,0.3,0.1,0.3,0.2
			c0.2,0.2,0.4,0.4,0.8,0.5c0.3,0.1,0.7,0.2,1,0.2c0.6,0,1-0.1,1.3-0.3c0.3-0.2,0.4-0.4,0.4-0.8c0-0.3-0.1-0.5-0.4-0.7
			c-0.3-0.2-0.7-0.3-1.3-0.4c-0.8-0.1-1.4-0.4-1.8-0.7c-0.4-0.3-0.6-0.7-0.6-1.1c0-0.6,0.2-1,0.7-1.4c0.5-0.3,1-0.5,1.7-0.5
			C198.9,94.7,199.4,94.8,199.8,94.9z"/>
		<path d="M207.3,95.1c0.5,0.3,0.9,0.7,1.2,1.2c0.3,0.5,0.4,1.1,0.4,1.7c0,0.6-0.1,1.2-0.4,1.7c-0.3,0.5-0.7,0.9-1.2,1.2
			s-1.1,0.4-1.7,0.4s-1.2-0.1-1.7-0.4s-0.9-0.7-1.2-1.2c-0.3-0.5-0.4-1.1-0.4-1.7c0-0.6,0.1-1.2,0.4-1.7c0.3-0.5,0.7-0.9,1.2-1.2
			s1.1-0.4,1.7-0.4S206.8,94.8,207.3,95.1z M204.4,95.8c-0.4,0.2-0.7,0.5-0.9,0.9c-0.2,0.4-0.3,0.8-0.3,1.3c0,0.5,0.1,0.9,0.3,1.3
			s0.5,0.7,0.9,0.9c0.4,0.2,0.8,0.3,1.2,0.3c0.5,0,0.9-0.1,1.2-0.3c0.4-0.2,0.7-0.5,0.9-0.9c0.2-0.4,0.3-0.8,0.3-1.3
			c0-0.5-0.1-0.9-0.3-1.3c-0.2-0.4-0.5-0.7-0.9-0.9s-0.8-0.3-1.2-0.3C205.1,95.5,204.7,95.6,204.4,95.8z"/>
		<path d="M214.5,94.8c0.2,0.1,0.3,0.2,0.3,0.4c0,0,0,0.1,0,0.1c0,0.1-0.1,0.2-0.1,0.2c-0.1,0-0.2,0.1-0.3,0.1c-0.1,0-0.2,0-0.4,0
			c-0.1,0-0.2,0-0.3,0c-0.6,0-1.1,0.2-1.5,0.5s-0.6,0.7-0.6,1.2v3.6c0,0.1,0,0.3-0.1,0.3s-0.2,0.1-0.3,0.1c-0.1,0-0.3,0-0.3-0.1
			s-0.1-0.2-0.1-0.3v-5.7c0-0.1,0-0.3,0.1-0.3c0.1-0.1,0.2-0.1,0.3-0.1c0.1,0,0.3,0,0.3,0.1c0.1,0.1,0.1,0.2,0.1,0.3v0.5
			c0.2-0.3,0.5-0.6,0.9-0.8c0.4-0.2,0.7-0.3,1.2-0.3C214,94.7,214.3,94.7,214.5,94.8z"/>
		<path d="M220.4,95.1c0.5,0.3,0.9,0.7,1.2,1.2c0.3,0.5,0.4,1.1,0.4,1.7v2.8c0,0.1,0,0.2-0.1,0.3s-0.2,0.1-0.3,0.1s-0.2,0-0.3-0.1
			s-0.1-0.2-0.1-0.3v-0.7c-0.3,0.4-0.6,0.7-1.1,0.9c-0.4,0.2-0.9,0.3-1.4,0.3c-0.6,0-1.2-0.1-1.7-0.4c-0.5-0.3-0.9-0.7-1.2-1.2
			c-0.3-0.5-0.4-1.1-0.4-1.7s0.1-1.2,0.4-1.7c0.3-0.5,0.7-0.9,1.2-1.2c0.5-0.3,1.1-0.4,1.7-0.4S219.9,94.8,220.4,95.1z M220,100.2
			c0.4-0.2,0.7-0.5,0.9-0.9s0.3-0.8,0.3-1.3c0-0.5-0.1-0.9-0.3-1.3s-0.5-0.7-0.9-0.9c-0.4-0.2-0.8-0.3-1.2-0.3s-0.9,0.1-1.2,0.3
			c-0.4,0.2-0.7,0.5-0.9,0.9c-0.2,0.4-0.3,0.8-0.3,1.3c0,0.5,0.1,0.9,0.3,1.3c0.2,0.4,0.5,0.7,0.9,0.9c0.4,0.2,0.8,0.3,1.2,0.3
			S219.6,100.4,220,100.2z"/>
		<path d="M233.7,95.2V98c0,0.6-0.1,1.2-0.4,1.7s-0.7,0.9-1.2,1.2s-1.1,0.4-1.7,0.4s-1.2-0.1-1.7-0.4c-0.5-0.3-0.9-0.7-1.2-1.2
			S227,98.6,227,98s0.1-1.2,0.4-1.7c0.3-0.5,0.7-0.9,1.2-1.2c0.5-0.3,1-0.4,1.7-0.4c0.5,0,1,0.1,1.4,0.3c0.4,0.2,0.8,0.5,1.1,0.9
			v-3.5c0-0.1,0-0.2,0.1-0.3s0.2-0.1,0.3-0.1s0.2,0,0.3,0.1s0.1,0.2,0.1,0.3v2.7C233.7,95.1,233.7,95.1,233.7,95.2z M231.6,100.2
			c0.4-0.2,0.7-0.5,0.9-0.9s0.3-0.8,0.3-1.3c0-0.1,0-0.2,0-0.3c0,0,0,0,0-0.1c-0.1-0.6-0.3-1.1-0.8-1.5c-0.4-0.4-1-0.6-1.6-0.6
			c-0.5,0-0.9,0.1-1.2,0.3s-0.7,0.5-0.9,0.9c-0.2,0.4-0.3,0.8-0.3,1.3c0,0.5,0.1,0.9,0.3,1.3c0.2,0.4,0.5,0.7,0.9,0.9
			c0.4,0.2,0.8,0.3,1.2,0.3S231.2,100.4,231.6,100.2z"/>
		<path d="M240.2,95.1c0.5,0.3,0.8,0.7,1.1,1.1c0.3,0.5,0.4,1,0.4,1.7c0,0.1,0,0.2-0.1,0.3c-0.1,0.1-0.2,0.1-0.3,0.1h-4.8
			c0.1,0.7,0.3,1.2,0.8,1.6s1,0.6,1.7,0.6c0.3,0,0.6-0.1,0.9-0.2s0.5-0.2,0.7-0.4c0.1-0.1,0.2-0.1,0.3-0.1c0.1,0,0.2,0,0.3,0.1
			c0.1,0.1,0.2,0.2,0.2,0.3c0,0.1,0,0.2-0.1,0.3c-0.3,0.2-0.6,0.4-1,0.6c-0.4,0.1-0.8,0.2-1.2,0.2c-0.6,0-1.2-0.1-1.7-0.4
			c-0.5-0.3-0.9-0.7-1.2-1.2s-0.4-1.1-0.4-1.7c0-0.6,0.1-1.2,0.4-1.7c0.3-0.5,0.6-0.9,1.1-1.2c0.5-0.3,1-0.4,1.6-0.4
			C239.3,94.7,239.8,94.8,240.2,95.1z M237.2,96.1c-0.4,0.4-0.6,0.9-0.7,1.5h4.4c-0.1-0.6-0.3-1.1-0.7-1.5c-0.4-0.4-0.9-0.6-1.5-0.6
			C238.1,95.5,237.6,95.7,237.2,96.1z"/>
		<path d="M251.4,92.2c0.5,0.3,0.9,0.6,1.1,1.1c0.1,0.1,0.1,0.2,0.1,0.3c0,0.2-0.1,0.3-0.2,0.4c-0.1,0-0.1,0-0.2,0
			c-0.1,0-0.2,0-0.2-0.1s-0.1-0.1-0.2-0.2c-0.4-0.7-1.1-1.1-2-1.1c-0.6,0-1.2,0.1-1.5,0.4c-0.4,0.3-0.6,0.7-0.6,1.2
			c0,0.9,0.8,1.5,2.3,1.7c1,0.1,1.7,0.4,2.2,0.9s0.7,1.1,0.7,1.8c0,0.6-0.1,1-0.4,1.5c-0.3,0.4-0.6,0.7-1.1,0.9s-1,0.3-1.6,0.3
			c-0.8,0-1.4-0.2-2-0.5s-1-0.8-1.3-1.3c0-0.1,0-0.1,0-0.2c0-0.1,0-0.2,0.1-0.3c0.1-0.1,0.2-0.1,0.3-0.1c0.1,0,0.2,0,0.3,0.1
			c0.1,0.1,0.1,0.1,0.2,0.2c0.2,0.4,0.5,0.6,0.9,0.9c0.4,0.2,0.9,0.3,1.5,0.3c0.7,0,1.2-0.2,1.6-0.5c0.4-0.3,0.6-0.8,0.6-1.3
			c0-0.5-0.2-0.9-0.6-1.3s-0.9-0.6-1.7-0.7c-0.9-0.1-1.7-0.4-2.2-0.9c-0.5-0.5-0.8-1-0.8-1.7c0-0.5,0.1-0.9,0.4-1.3
			c0.3-0.4,0.6-0.6,1.1-0.8c0.5-0.2,1-0.3,1.6-0.3C250.4,91.8,250.9,92,251.4,92.2z"/>
		<path d="M259.1,95.1c0.5,0.3,0.8,0.7,1.1,1.1c0.3,0.5,0.4,1,0.4,1.7c0,0.1,0,0.2-0.1,0.3c-0.1,0.1-0.2,0.1-0.3,0.1h-4.8
			c0.1,0.7,0.3,1.2,0.8,1.6s1,0.6,1.7,0.6c0.3,0,0.6-0.1,0.9-0.2s0.5-0.2,0.7-0.4c0.1-0.1,0.2-0.1,0.3-0.1c0.1,0,0.2,0,0.3,0.1
			c0.1,0.1,0.2,0.2,0.2,0.3c0,0.1,0,0.2-0.1,0.3c-0.3,0.2-0.6,0.4-1,0.6c-0.4,0.1-0.8,0.2-1.2,0.2c-0.6,0-1.2-0.1-1.7-0.4
			c-0.5-0.3-0.9-0.7-1.2-1.2s-0.4-1.1-0.4-1.7c0-0.6,0.1-1.2,0.4-1.7c0.3-0.5,0.6-0.9,1.1-1.2c0.5-0.3,1-0.4,1.6-0.4
			C258.1,94.7,258.6,94.8,259.1,95.1z M256,96.1c-0.4,0.4-0.6,0.9-0.7,1.5h4.4c-0.1-0.6-0.3-1.1-0.7-1.5c-0.4-0.4-0.9-0.6-1.5-0.6
			C256.9,95.5,256.4,95.7,256,96.1z"/>
		<path d="M266.5,95.1c0.5,0.3,0.9,0.7,1.2,1.2c0.3,0.5,0.4,1.1,0.4,1.7v2.4c0,0.6-0.1,1.2-0.4,1.7c-0.3,0.5-0.7,0.9-1.2,1.2
			c-0.5,0.3-1.1,0.5-1.7,0.5c-0.6,0-1.2-0.1-1.6-0.3c-0.5-0.2-0.9-0.6-1.2-1c-0.1-0.1-0.1-0.2-0.1-0.3c0-0.1,0.1-0.2,0.2-0.3
			c0.1-0.1,0.2-0.1,0.3-0.1c0.1,0,0.1,0,0.2,0.1s0.1,0.1,0.2,0.1c0.2,0.3,0.5,0.5,0.9,0.7c0.4,0.2,0.8,0.3,1.2,0.3
			c0.4,0,0.9-0.1,1.2-0.3s0.6-0.5,0.9-0.9c0.2-0.4,0.3-0.8,0.3-1.4v-0.5c-0.2,0.5-0.6,0.8-1,1.1c-0.4,0.3-0.9,0.4-1.5,0.4
			c-0.6,0-1.2-0.1-1.7-0.4c-0.5-0.3-0.9-0.7-1.2-1.2c-0.3-0.5-0.4-1.1-0.4-1.7c0-0.6,0.1-1.2,0.4-1.7s0.7-0.9,1.2-1.2
			c0.5-0.3,1.1-0.4,1.7-0.4C265.5,94.7,266,94.8,266.5,95.1z M266.1,100.2c0.4-0.2,0.7-0.5,0.9-0.9c0.2-0.4,0.3-0.8,0.3-1.3
			c0-0.5-0.1-0.9-0.3-1.3c-0.2-0.4-0.5-0.7-0.9-0.9s-0.8-0.3-1.2-0.3c-0.5,0-0.9,0.1-1.3,0.3c-0.4,0.2-0.7,0.5-0.9,0.9
			c-0.2,0.4-0.3,0.8-0.3,1.3c0,0.5,0.1,0.9,0.3,1.3c0.2,0.4,0.5,0.7,0.9,0.9c0.4,0.2,0.8,0.3,1.3,0.3
			C265.3,100.5,265.7,100.4,266.1,100.2z"/>
		<path d="M275.8,94.9c0.1,0.1,0.1,0.2,0.1,0.3v5.6c0,0.1,0,0.2-0.1,0.3s-0.2,0.1-0.3,0.1s-0.2,0-0.3-0.1s-0.1-0.2-0.1-0.3v-0.4
			c-0.3,0.3-0.6,0.5-1,0.7s-0.8,0.3-1.2,0.3c-0.6,0-1.1-0.1-1.5-0.4s-0.8-0.6-1.1-1c-0.3-0.5-0.4-1-0.4-1.7v-3.1
			c0-0.1,0-0.2,0.1-0.3c0.1-0.1,0.2-0.1,0.3-0.1c0.1,0,0.2,0,0.3,0.1s0.1,0.2,0.1,0.3v3.1c0,0.7,0.2,1.3,0.6,1.6
			c0.4,0.4,0.9,0.6,1.6,0.6c0.4,0,0.7-0.1,1.1-0.2c0.3-0.2,0.6-0.4,0.8-0.6c0.2-0.3,0.3-0.6,0.3-0.9v-3.6c0-0.1,0-0.2,0.1-0.3
			c0.1-0.1,0.2-0.1,0.3-0.1S275.7,94.8,275.8,94.9z"/>
		<path d="M281.8,94.8c0.2,0.1,0.3,0.2,0.3,0.4c0,0,0,0.1,0,0.1c0,0.1-0.1,0.2-0.2,0.2s-0.2,0.1-0.3,0.1c-0.1,0-0.2,0-0.4,0
			c-0.1,0-0.2,0-0.3,0c-0.6,0-1.1,0.2-1.5,0.5s-0.6,0.7-0.6,1.2v3.6c0,0.1,0,0.3-0.1,0.3c-0.1,0.1-0.2,0.1-0.3,0.1
			c-0.1,0-0.3,0-0.3-0.1c-0.1-0.1-0.1-0.2-0.1-0.3v-5.7c0-0.1,0-0.3,0.1-0.3c0.1-0.1,0.2-0.1,0.3-0.1c0.1,0,0.3,0,0.3,0.1
			c0.1,0.1,0.1,0.2,0.1,0.3v0.5c0.2-0.3,0.5-0.6,0.9-0.8c0.4-0.2,0.7-0.3,1.2-0.3C281.4,94.7,281.6,94.7,281.8,94.8z"/>
		<path d="M287.8,95.1c0.5,0.3,0.9,0.7,1.2,1.2c0.3,0.5,0.4,1.1,0.4,1.7c0,0.6-0.1,1.2-0.4,1.7c-0.3,0.5-0.7,0.9-1.2,1.2
			s-1.1,0.4-1.7,0.4s-1.2-0.1-1.7-0.4s-0.9-0.7-1.2-1.2c-0.3-0.5-0.4-1.1-0.4-1.7c0-0.6,0.1-1.2,0.4-1.7c0.3-0.5,0.7-0.9,1.2-1.2
			s1.1-0.4,1.7-0.4S287.3,94.8,287.8,95.1z M284.8,95.8c-0.4,0.2-0.7,0.5-0.9,0.9c-0.2,0.4-0.3,0.8-0.3,1.3c0,0.5,0.1,0.9,0.3,1.3
			s0.5,0.7,0.9,0.9c0.4,0.2,0.8,0.3,1.2,0.3c0.5,0,0.9-0.1,1.2-0.3c0.4-0.2,0.7-0.5,0.9-0.9c0.2-0.4,0.3-0.8,0.3-1.3
			c0-0.5-0.1-0.9-0.3-1.3c-0.2-0.4-0.5-0.7-0.9-0.9s-0.8-0.3-1.2-0.3C285.6,95.5,285.2,95.6,284.8,95.8z"/>
		<path d="M294.9,94.9c0.4,0.2,0.7,0.4,0.9,0.8c0.1,0.1,0.1,0.2,0.1,0.3c0,0.1-0.1,0.2-0.2,0.3c-0.1,0-0.1,0.1-0.2,0.1
			c-0.2,0-0.3-0.1-0.4-0.2c-0.4-0.4-0.9-0.7-1.6-0.7c-0.4,0-0.8,0.1-1.1,0.3c-0.3,0.2-0.4,0.4-0.4,0.7c0,0.3,0.1,0.5,0.4,0.7
			s0.7,0.3,1.3,0.4c0.9,0.1,1.5,0.4,1.8,0.7s0.6,0.7,0.6,1.2c0,0.4-0.1,0.7-0.3,1c-0.2,0.3-0.5,0.5-0.9,0.7s-0.8,0.2-1.3,0.2
			s-1-0.1-1.4-0.3s-0.8-0.4-1.1-0.7c-0.1-0.1-0.1-0.2-0.1-0.3c0-0.1,0.1-0.3,0.2-0.4c0.1-0.1,0.2-0.1,0.3-0.1c0.1,0,0.3,0.1,0.3,0.2
			c0.2,0.2,0.4,0.4,0.8,0.5c0.3,0.1,0.7,0.2,1,0.2c0.6,0,1-0.1,1.3-0.3c0.3-0.2,0.4-0.4,0.4-0.8c0-0.3-0.1-0.5-0.4-0.7
			c-0.3-0.2-0.7-0.3-1.3-0.4c-0.8-0.1-1.4-0.4-1.8-0.7c-0.4-0.3-0.6-0.7-0.6-1.1c0-0.6,0.2-1,0.7-1.4c0.5-0.3,1-0.5,1.7-0.5
			C294,94.7,294.5,94.8,294.9,94.9z"/>
	</g>
</g>
</svg>
